<svg width="13" height="12" viewBox="0 0 13 12" fill="none" xmlns="http://www.w3.org/2000/svg">
<path fill-rule="evenodd" clip-rule="evenodd" d="M8.16581 6.22233C8.06652 5.96234 7.88265 5.73725 7.6395 5.57804C7.39635 5.41883 7.10589 5.33334 6.8081 5.33333V5H6.08821V5.33333C5.70636 5.33333 5.34015 5.47381 5.07014 5.72386C4.80013 5.97391 4.64844 6.31304 4.64844 6.66667C4.64844 7.02029 4.80013 7.35943 5.07014 7.60947C5.34015 7.85952 5.70636 8 6.08821 8V9.33333C5.77506 9.33333 5.50834 9.14833 5.409 8.889C5.39426 8.84657 5.37048 8.80731 5.33907 8.77354C5.30766 8.73977 5.26926 8.71218 5.22613 8.69239C5.18301 8.67261 5.13603 8.66103 5.08799 8.65835C5.03995 8.65567 4.99182 8.66194 4.94644 8.67679C4.90106 8.69164 4.85936 8.71476 4.8238 8.7448C4.78824 8.77483 4.75954 8.81116 4.73941 8.85165C4.71928 8.89213 4.70812 8.93594 4.70659 8.98049C4.70506 9.02503 4.71319 9.06941 4.7305 9.111C4.82979 9.37099 5.01367 9.59609 5.25682 9.75529C5.49996 9.9145 5.79043 9.99999 6.08821 10V10.3333H6.8081V10C7.18995 10 7.55617 9.85952 7.82618 9.60947C8.09619 9.35943 8.24788 9.02029 8.24788 8.66667C8.24788 8.31304 8.09619 7.97391 7.82618 7.72386C7.55617 7.47381 7.18995 7.33333 6.8081 7.33333V6C6.95698 5.99997 7.10221 6.04268 7.22378 6.12225C7.34536 6.20183 7.43731 6.31435 7.48696 6.44433C7.51875 6.5277 7.58499 6.59596 7.67113 6.63409C7.71378 6.65297 7.76002 6.66389 7.80723 6.66622C7.85443 6.66855 7.90167 6.66224 7.94625 6.64767C7.99082 6.63309 8.03186 6.61052 8.06701 6.58126C8.10217 6.552 8.13076 6.51661 8.15115 6.47711C8.17154 6.43762 8.18333 6.39479 8.18584 6.35107C8.18836 6.30736 8.18155 6.26361 8.16581 6.22233ZM6.08821 6C5.89729 6 5.71418 6.07024 5.57918 6.19526C5.44417 6.32029 5.36833 6.48986 5.36833 6.66667C5.36833 6.84348 5.44417 7.01305 5.57918 7.13807C5.71418 7.26309 5.89729 7.33333 6.08821 7.33333V6ZM6.8081 9.33333C6.99903 9.33333 7.18213 9.26309 7.31714 9.13807C7.45214 9.01305 7.52799 8.84348 7.52799 8.66667C7.52799 8.48985 7.45214 8.32029 7.31714 8.19526C7.18213 8.07024 6.99903 8 6.8081 8V9.33333Z" fill="#78808A"/>
<path fill-rule="evenodd" clip-rule="evenodd" d="M2.54193 0.873667C3.42524 0.473333 4.87437 0 6.46029 0C8.01308 0 9.42407 0.453667 10.3027 0.848667L10.3524 0.871C10.6173 0.992333 10.8311 1.107 10.9815 1.2L9.65191 3C12.7172 5.902 15.0849 11.999 6.46029 11.999C-2.16433 11.999 0.139668 6.01267 3.23159 3L1.91059 1.2C2.01246 1.13833 2.14168 1.06667 2.29573 0.990667C2.37204 0.952667 2.45411 0.913333 2.54193 0.873667ZM8.7974 2.976L9.86176 1.535C8.87191 1.601 7.69417 1.81633 6.56035 2.12033C5.75048 2.337 4.85062 2.304 4.01735 2.16167C3.80737 2.12562 3.59883 2.0827 3.39212 2.033L4.08321 2.97533C5.56438 3.46367 7.31587 3.46367 8.7974 2.976ZM3.66748 3.54333C5.40061 4.16333 7.48361 4.16333 9.21674 3.54267C9.94018 4.2489 10.5454 5.05146 11.0121 5.92367C11.4988 6.843 11.7637 7.762 11.7205 8.554C11.6788 9.31833 11.3541 9.97133 10.6126 10.4567C9.8398 10.9623 8.54004 11.3323 6.45993 11.3323C4.37765 11.3323 3.07177 10.9687 2.29177 10.4687C1.54489 9.98933 1.21698 9.34533 1.17055 8.59133C1.12196 7.808 1.38111 6.89367 1.86596 5.968C2.32849 5.08533 2.97387 4.23567 3.66748 3.54333ZM3.25354 1.30533C3.5415 1.38467 3.84241 1.45367 4.14765 1.506C4.92153 1.638 5.69756 1.65733 6.35986 1.47967C7.13166 1.27145 7.91664 1.10769 8.7103 0.989334C8.048 0.804667 7.2734 0.666667 6.45993 0.666667C5.21992 0.666667 4.06342 0.987 3.25354 1.30533Z" fill="#78808A"/>
</svg>
