<svg width="12" height="12" viewBox="0 0 12 12" fill="none" xmlns="http://www.w3.org/2000/svg">
<path d="M12 5.57812C11.9534 5.65805 11.9196 5.75063 11.857 5.81508C11.7234 5.95242 11.5528 5.98969 11.3719 5.92289C11.1867 5.85445 11.085 5.71359 11.0653 5.51695C11.0595 5.45883 11.0625 5.39977 11.0625 5.34141C11.0623 4.52508 11.0627 3.70875 11.0623 2.89219C11.062 2.26875 10.6687 1.87594 10.0455 1.87523C9.87422 1.875 9.70289 1.87523 9.51469 1.87523C9.51469 2.04023 9.52055 2.19914 9.51352 2.35734C9.49734 2.72391 9.10477 2.9325 8.7982 2.73914C8.65547 2.64914 8.58352 2.51484 8.57953 2.34727C8.57578 2.19539 8.57883 2.04352 8.57883 1.88344C7.8675 1.88344 7.1632 1.88344 6.44555 1.88344C6.44555 2.00414 6.44555 2.12391 6.44555 2.24367C6.44555 2.595 6.2693 2.80992 5.97984 2.8118C5.68594 2.81367 5.50781 2.59711 5.50781 2.23805C5.50781 2.12156 5.50781 2.00508 5.50781 1.88203C4.80516 1.88203 4.11141 1.88203 3.39797 1.88203C3.39797 2.03227 3.40078 2.18672 3.39727 2.34094C3.39258 2.55305 3.26766 2.72438 3.07852 2.78672C2.77664 2.88633 2.47453 2.67492 2.46234 2.35172C2.45648 2.1968 2.46141 2.04141 2.46141 1.86305C2.18484 1.87664 1.91578 1.86047 1.65891 1.90898C1.23984 1.98797 0.962578 2.35289 0.938906 2.79234C0.937266 2.82352 0.9375 2.85492 0.9375 2.88609C0.9375 5.27672 0.937734 7.66711 0.937266 10.0577C0.937266 10.4637 1.09523 10.7841 1.46859 10.9596C1.61133 11.0266 1.78359 11.0573 1.94297 11.0585C3.09516 11.0665 4.24758 11.0637 5.39977 11.0618C5.55117 11.0616 5.68664 11.0944 5.79492 11.2045C6.02016 11.4335 5.95125 11.8146 5.66016 11.9536C5.62547 11.9702 5.58961 11.9848 5.55445 12.0002C4.25766 12.0002 2.96062 12.0002 1.66383 12.0002C1.64648 11.993 1.62984 11.9822 1.6118 11.9791C0.952734 11.873 0.472031 11.5195 0.184453 10.92C0.0972656 10.7377 0.0602344 10.5312 0 10.3359C0 7.75781 0 5.17969 0 2.60156C0.0075 2.58023 0.01875 2.55961 0.0222656 2.53758C0.114609 1.965 0.408984 1.52602 0.897422 1.21641C1.24594 0.995391 1.63125 0.923672 2.03766 0.936797C2.17641 0.94125 2.31539 0.9375 2.46094 0.9375C2.46094 0.809297 2.46727 0.696328 2.45977 0.584063C2.44031 0.294141 2.55633 0.0953906 2.83594 0C2.89852 0 2.96086 0 3.02344 0C3.30281 0.0953906 3.41906 0.293906 3.39961 0.583828C3.39188 0.698672 3.39844 0.814687 3.39844 0.929531C4.10953 0.929531 4.80516 0.929531 5.50781 0.929531C5.50781 0.809062 5.51414 0.696094 5.50664 0.583828C5.48719 0.293906 5.60344 0.0953906 5.88281 0C5.94539 0 6.00773 0 6.07031 0C6.34969 0.0953906 6.46594 0.293906 6.44648 0.583828C6.43875 0.698672 6.44531 0.814687 6.44531 0.929531C7.16414 0.929531 7.86773 0.929531 8.57812 0.929531C8.57812 0.809062 8.58445 0.696094 8.57695 0.583828C8.5575 0.293906 8.67375 0.0953906 8.95312 0C9.0157 0 9.07805 0 9.14062 0C9.42023 0.0953906 9.53625 0.294141 9.5168 0.584063C9.50906 0.698906 9.51562 0.814922 9.51562 0.939141C9.74883 0.939141 9.96727 0.928828 10.1845 0.941016C10.9242 0.982266 11.4715 1.33547 11.8048 1.99523C11.8992 2.1825 11.9365 2.39859 12 2.60156C12 3.59367 12 4.58602 12 5.57812Z" fill="#78808A"/>
<path d="M8.93023 12.0001C8.65906 11.9321 8.37922 11.8883 8.11859 11.7922C6.90922 11.3467 6.14141 9.99879 6.36758 8.73012C6.56797 7.60629 7.20992 6.8291 8.29016 6.47707C9.39641 6.1166 10.3871 6.38613 11.2102 7.20973C11.6574 7.65715 11.904 8.21121 11.9799 8.84004C11.9837 8.87027 11.9937 8.90004 12.0008 8.9298C12.0008 9.08613 12.0008 9.24223 12.0008 9.39855C11.993 9.43629 11.9834 9.47379 11.9776 9.51176C11.8025 10.6323 11.191 11.4095 10.1342 11.8208C9.90125 11.9115 9.64484 11.942 9.39922 12.0001C9.24266 12.0001 9.08656 12.0001 8.93023 12.0001ZM9.16086 11.0621C10.2052 11.0645 11.0621 10.2097 11.0626 9.16488C11.063 8.12473 10.2153 7.2723 9.17398 7.26598C8.13031 7.25988 7.27062 8.11207 7.26641 9.15738C7.26219 10.2015 8.11578 11.0598 9.16086 11.0621Z" fill="#78808A"/>
<path d="M3.39664 4.92425C3.39523 5.18183 3.18101 5.39276 2.92344 5.38972C2.66586 5.38667 2.45633 5.17105 2.46101 4.91347C2.46547 4.66058 2.67523 4.45409 2.92836 4.45386C3.18594 4.45362 3.39805 4.66667 3.39664 4.92425Z" fill="#78808A"/>
<path d="M4.97016 4.45411C5.22774 4.45551 5.43867 4.66973 5.43563 4.92731C5.43281 5.18489 5.21719 5.39442 4.95961 5.38997C4.70649 5.38551 4.50024 5.17575 4.5 4.92262C4.49953 4.66481 4.71258 4.4527 4.97016 4.45411Z" fill="#78808A"/>
<path d="M7.47496 4.92216C7.47473 5.17997 7.26168 5.39161 7.00387 5.38974C6.74629 5.3881 6.53582 5.17341 6.5391 4.91583C6.54238 4.66271 6.75121 4.45552 7.00433 4.45411C7.26215 4.45247 7.47519 4.66458 7.47496 4.92216Z" fill="#78808A"/>
<path d="M9.04641 4.4541C9.30423 4.45434 9.51587 4.66738 9.51399 4.9252C9.51235 5.18277 9.29766 5.39324 9.04008 5.38996C8.78696 5.38668 8.57977 5.17785 8.57813 4.92473C8.57673 4.66691 8.7886 4.45387 9.04641 4.4541Z" fill="#78808A"/>
<path d="M2.9269 7.42884C2.66909 7.42767 2.45815 7.21369 2.46097 6.95611C2.46354 6.69853 2.67917 6.48876 2.93675 6.49298C3.18987 6.4972 3.39636 6.70673 3.39682 6.95986C3.39729 7.21767 3.18448 7.43001 2.9269 7.42884Z" fill="#78808A"/>
<path d="M5.43569 6.96285C5.43475 7.22067 5.22077 7.4316 4.96319 7.42902C4.70561 7.42645 4.49584 7.21106 4.50006 6.95348C4.50428 6.70035 4.71358 6.49387 4.9667 6.49317C5.22452 6.49246 5.43686 6.70504 5.43569 6.96285Z" fill="#78808A"/>
<path d="M3.39682 8.99912C3.39729 9.2567 3.18472 9.46904 2.9269 9.46787C2.66909 9.4667 2.45815 9.25271 2.46097 8.99514C2.46354 8.74201 2.6719 8.53436 2.92503 8.53225C3.18284 8.5299 3.39636 8.74131 3.39682 8.99912Z" fill="#78808A"/>
<path d="M4.96597 9.46792C4.70815 9.46675 4.49722 9.25276 4.50003 8.99519C4.50284 8.73761 4.71823 8.52784 4.97581 8.5323C5.22893 8.53651 5.43542 8.74605 5.43589 8.99917C5.43636 9.25675 5.22354 9.46909 4.96597 9.46792Z" fill="#78808A"/>
<path d="M9.63425 8.69699C9.72683 8.69699 9.80112 8.69277 9.87448 8.6977C10.1271 8.71504 10.3182 8.92199 10.3144 9.1709C10.3109 9.41512 10.121 9.6202 9.87237 9.6291C9.62698 9.63801 9.38089 9.63848 9.1355 9.62863C8.89644 9.61902 8.70776 9.42895 8.70167 9.18871C8.69323 8.85356 8.69323 8.51793 8.70144 8.18277C8.70753 7.92848 8.91706 7.73559 9.1662 7.73535C9.41511 7.73488 9.62136 7.92777 9.63284 8.1816C9.64034 8.34801 9.63425 8.51512 9.63425 8.69699Z" fill="#78808A"/>
</svg>
