<svg width="18" height="18" viewBox="0 0 18 18" fill="none" xmlns="http://www.w3.org/2000/svg">
<path d="M8.64622 0.670534C8.7963 0.386076 9.2037 0.386077 9.35378 0.670535L11.6591 5.03985C11.7169 5.14954 11.8224 5.22619 11.9446 5.24733L16.8125 6.08959C17.1294 6.14442 17.2553 6.53188 17.0311 6.76252L13.588 10.3052C13.5016 10.3941 13.4613 10.5181 13.4789 10.6409L14.1821 15.5307C14.2279 15.8491 13.8983 16.0885 13.6097 15.9466L9.1765 13.7668C9.0652 13.7121 8.9348 13.7121 8.8235 13.7668L4.39028 15.9466C4.10166 16.0885 3.77207 15.8491 3.81785 15.5307L4.52106 10.6409C4.53871 10.5181 4.49842 10.3941 4.41198 10.3052L0.968886 6.76252C0.744728 6.53188 0.870618 6.14442 1.18753 6.08959L6.05536 5.24733C6.17758 5.22619 6.28307 5.14954 6.34094 5.03985L8.64622 0.670534Z" fill="#FCBF29"/>
<path fill-rule="evenodd" clip-rule="evenodd" d="M9 13.7256C9.06042 13.7256 9.12085 13.7393 9.1765 13.7666L13.6097 15.9465C13.8983 16.0884 14.2279 15.8489 14.1821 15.5306L13.4789 10.6407C13.4613 10.518 13.5016 10.3939 13.588 10.305L17.0311 6.76236C17.2553 6.53172 17.1294 6.14427 16.8125 6.08943L11.9446 5.24717C11.8224 5.22603 11.7169 5.14938 11.6591 5.03969L9.35378 0.670376C9.27874 0.528146 9.13937 0.457031 9 0.457031V13.7256Z" fill="#D0D3D7"/>
</svg>
