<svg width="25" height="25" viewBox="0 0 25 25" fill="none" xmlns="http://www.w3.org/2000/svg">
<path d="M18.875 4.16675H6.125C4.46815 4.16675 3.125 5.50989 3.125 7.16675V16.6667V20.6254C3.125 20.7092 3.22199 20.7558 3.28747 20.7034L7.03125 17.7084H18.875C20.5319 17.7084 21.875 16.3653 21.875 14.7084V7.16675C21.875 5.50989 20.5319 4.16675 18.875 4.16675Z" stroke="#79828D" stroke-width="2"/>
<path d="M10.8359 9.21882C10.8359 8.22218 11.7085 7.5 12.6786 7.5C13.6487 7.5 14.4818 8.22218 14.4818 9.21882C14.4818 9.98617 13.811 10.2317 13.1944 10.8763C12.8433 11.2433 12.6786 11.8176 12.6786 12.0734M12.6786 13.0207V14.4271" stroke="#79828D" stroke-width="2"/>
</svg>
