<svg width="25" height="25" viewBox="0 0 25 25" fill="none" xmlns="http://www.w3.org/2000/svg">
<path d="M9.53616 21.637V18.4425C9.53614 17.63 10.1986 16.9698 11.0193 16.9643H14.0256C14.8503 16.9643 15.5188 17.6261 15.5188 18.4425V18.4425V21.647C15.5186 22.3368 16.0747 22.9007 16.7714 22.9168H18.7756C20.7736 22.9168 22.3932 21.3134 22.3932 19.3354V19.3354V10.2479C22.3826 9.46977 22.0135 8.73907 21.3911 8.26374L14.5367 2.79735C13.3359 1.84554 11.6289 1.84554 10.428 2.79735L3.60367 8.27366C2.97892 8.74706 2.60926 9.47898 2.60156 10.2578V19.3354C2.60156 21.3134 4.22122 22.9168 6.21918 22.9168H8.2234C8.93735 22.9168 9.51612 22.3438 9.51612 21.637V21.637" stroke="#79828D" stroke-width="2" stroke-linecap="round" stroke-linejoin="round"/>
</svg>
