<svg width="25" height="25" viewBox="0 0 25 25" fill="none" xmlns="http://www.w3.org/2000/svg">
<g clip-path="url(#clip0_2125_6356)">
<path d="M4.16748 22.9167C3.75681 22.9178 3.35 22.8375 2.97058 22.6803C2.59117 22.5231 2.24669 22.2923 1.95707 22.0011L0.348733 20.5699C0.142361 20.3859 0.0175336 20.1274 0.00171023 19.8514C-0.0141132 19.5754 0.0803641 19.3044 0.264358 19.098C0.448352 18.8916 0.706791 18.7668 0.982821 18.751C1.25885 18.7351 1.52986 18.8296 1.73623 19.0136L3.38727 20.4865C3.48179 20.5927 3.59703 20.6784 3.7259 20.7383C3.85476 20.7982 3.99453 20.8312 4.1366 20.8351C4.27868 20.839 4.42004 20.8138 4.55201 20.761C4.68397 20.7082 4.80374 20.629 4.90394 20.5282L8.65394 16.9542C8.75189 16.8546 8.86888 16.7757 8.99794 16.7222C9.127 16.6688 9.2655 16.6418 9.40521 16.6429C9.54491 16.6441 9.68295 16.6733 9.81113 16.7289C9.9393 16.7845 10.055 16.8653 10.1513 16.9665C10.2476 17.0677 10.3226 17.1872 10.3717 17.318C10.4209 17.4487 10.4433 17.5881 10.4375 17.7276C10.4317 17.8672 10.3979 18.0042 10.3381 18.1305C10.2783 18.2567 10.1937 18.3697 10.0894 18.4626L6.35498 22.0188C6.06725 22.3049 5.72595 22.5314 5.3506 22.6855C4.97525 22.8396 4.57322 22.9182 4.16748 22.9167ZM23.9591 21.8751H13.5425C13.2662 21.8751 13.0013 21.7653 12.8059 21.57C12.6106 21.3746 12.5008 21.1097 12.5008 20.8334C12.5008 20.5571 12.6106 20.2922 12.8059 20.0968C13.0013 19.9015 13.2662 19.7917 13.5425 19.7917H23.9591C24.2354 19.7917 24.5004 19.9015 24.6957 20.0968C24.8911 20.2922 25.0008 20.5571 25.0008 20.8334C25.0008 21.1097 24.8911 21.3746 24.6957 21.57C24.5004 21.7653 24.2354 21.8751 23.9591 21.8751ZM4.16748 14.5834C3.75681 14.5845 3.35 14.5041 2.97058 14.347C2.59117 14.1898 2.24669 13.9589 1.95707 13.6678L0.306025 12.0167C0.116277 11.8203 0.0112825 11.5572 0.0136559 11.284C0.0160292 11.0109 0.12558 10.7497 0.318714 10.5565C0.511847 10.3634 0.77311 10.2538 1.04623 10.2515C1.31935 10.2491 1.58248 10.3541 1.77894 10.5438L3.43102 12.1949C3.62932 12.3845 3.89312 12.4903 4.16748 12.4903C4.44185 12.4903 4.70564 12.3845 4.90394 12.1949L8.65394 8.62091C8.85396 8.43001 9.12162 8.32639 9.39804 8.33283C9.67446 8.33928 9.937 8.45527 10.1279 8.65529C10.3188 8.8553 10.4224 9.12296 10.416 9.39938C10.4095 9.67581 10.2935 9.93834 10.0935 10.1292L6.35498 13.6855C6.06725 13.9716 5.72595 14.1981 5.3506 14.3522C4.97525 14.5062 4.57322 14.5848 4.16748 14.5834ZM23.9591 13.5417H13.5425C13.2662 13.5417 13.0013 13.432 12.8059 13.2366C12.6106 13.0413 12.5008 12.7763 12.5008 12.5001C12.5008 12.2238 12.6106 11.9589 12.8059 11.7635C13.0013 11.5682 13.2662 11.4584 13.5425 11.4584H23.9591C24.2354 11.4584 24.5004 11.5682 24.6957 11.7635C24.8911 11.9589 25.0008 12.2238 25.0008 12.5001C25.0008 12.7763 24.8911 13.0413 24.6957 13.2366C24.5004 13.432 24.2354 13.5417 23.9591 13.5417ZM4.16748 6.25008C3.75681 6.25115 3.35 6.17079 2.97058 6.01362C2.59117 5.85646 2.24669 5.62561 1.95707 5.33445L0.348733 3.9032C0.142361 3.71921 0.0175336 3.46077 0.00171023 3.18474C-0.0141132 2.90871 0.0803641 2.6377 0.264358 2.43133C0.448352 2.22496 0.706791 2.10013 0.982821 2.0843C1.25885 2.06848 1.52986 2.16296 1.73623 2.34695L3.38727 3.81987C3.48179 3.92601 3.59703 4.01169 3.7259 4.07163C3.85476 4.13157 3.99453 4.1645 4.1366 4.16841C4.27868 4.17231 4.42004 4.1471 4.55201 4.09432C4.68397 4.04155 4.80374 3.96233 4.90394 3.86154L8.65811 0.287577C8.85998 0.107859 9.12379 0.0136389 9.39384 0.0248181C9.66389 0.0359972 9.91901 0.1517 10.1053 0.347489C10.2917 0.543277 10.3946 0.803821 10.3924 1.07409C10.3902 1.34436 10.283 1.60319 10.0935 1.79591L6.35498 5.35216C6.06725 5.63822 5.72595 5.86476 5.3506 6.01883C4.97525 6.17291 4.57322 6.25148 4.16748 6.25008ZM23.9591 5.20841H13.5425C13.2662 5.20841 13.0013 5.09866 12.8059 4.90331C12.6106 4.70796 12.5008 4.44301 12.5008 4.16674C12.5008 3.89048 12.6106 3.62553 12.8059 3.43017C13.0013 3.23482 13.2662 3.12508 13.5425 3.12508H23.9591C24.2354 3.12508 24.5004 3.23482 24.6957 3.43017C24.8911 3.62553 25.0008 3.89048 25.0008 4.16674C25.0008 4.44301 24.8911 4.70796 24.6957 4.90331C24.5004 5.09866 24.2354 5.20841 23.9591 5.20841Z" fill="#79828D"/>
</g>
<defs>
<clipPath id="clip0_2125_6356">
<rect width="25" height="25" fill="white"/>
</clipPath>
</defs>
</svg>
