<svg width="14" height="14" viewBox="0 0 14 14" fill="none" xmlns="http://www.w3.org/2000/svg">
<path d="M4.95573 11.0833H4.66406C2.33073 11.0833 1.16406 10.5 1.16406 7.58329V4.66663C1.16406 2.33329 2.33073 1.16663 4.66406 1.16663H9.33073C11.6641 1.16663 12.8307 2.33329 12.8307 4.66663V7.58329C12.8307 9.91663 11.6641 11.0833 9.33073 11.0833H9.03906C8.85823 11.0833 8.68323 11.1708 8.5724 11.3166L7.6974 12.4833C7.3124 12.9966 6.6824 12.9966 6.2974 12.4833L5.4224 11.3166C5.32906 11.1883 5.11323 11.0833 4.95573 11.0833Z" stroke="#EF5537" stroke-width="1.5" stroke-miterlimit="10" stroke-linecap="round" stroke-linejoin="round"/>
<path d="M9.32753 6.41667H9.33276" stroke="#EF5537" stroke-width="2" stroke-linecap="round" stroke-linejoin="round"/>
<path d="M6.9994 6.41667H7.00464" stroke="#EF5537" stroke-width="2" stroke-linecap="round" stroke-linejoin="round"/>
<path d="M4.66346 6.41667H4.6687" stroke="#EF5537" stroke-width="2" stroke-linecap="round" stroke-linejoin="round"/>
</svg>
