<svg width="25" height="25" viewBox="0 0 25 25" fill="none" xmlns="http://www.w3.org/2000/svg">
<path fill-rule="evenodd" clip-rule="evenodd" d="M21.6725 7.94132L21.0241 6.81622C20.4756 5.86422 19.26 5.5358 18.3067 6.08205V6.08205C17.853 6.34937 17.3115 6.42521 16.8017 6.29285C16.2919 6.16049 15.8558 5.8308 15.5894 5.37648C15.418 5.08771 15.3259 4.7588 15.3224 4.42301V4.42301C15.3378 3.88466 15.1347 3.36297 14.7593 2.97679C14.3839 2.59061 13.8682 2.37283 13.3296 2.37305H12.0234C11.4957 2.37304 10.9898 2.58329 10.6176 2.95729C10.2454 3.33128 10.0376 3.83817 10.0402 4.3658V4.3658C10.0245 5.45518 9.13689 6.33006 8.0474 6.32995C7.71161 6.32646 7.3827 6.23437 7.09393 6.06298V6.06298C6.14062 5.51673 4.92505 5.84515 4.37654 6.79715L3.6805 7.94132C3.13265 8.89213 3.4566 10.1069 4.40514 10.6587V10.6587C5.02171 11.0147 5.40153 11.6725 5.40153 12.3845C5.40153 13.0964 5.02171 13.7543 4.40514 14.1103V14.1103C3.4578 14.6583 3.1335 15.8702 3.6805 16.8181V16.8181L4.3384 17.9528C4.5954 18.4165 5.0266 18.7587 5.53659 18.9036C6.04658 19.0486 6.59331 18.9843 7.05579 18.7251V18.7251C7.51043 18.4598 8.05221 18.3871 8.5607 18.5232C9.0692 18.6592 9.50226 18.9928 9.76365 19.4497C9.93504 19.7385 10.0271 20.0674 10.0306 20.4032V20.4032C10.0306 21.5037 10.9228 22.3959 12.0234 22.3959H13.3296C14.4265 22.3959 15.3171 21.5096 15.3224 20.4127V20.4127C15.3198 19.8834 15.529 19.3751 15.9032 19.0008C16.2775 18.6265 16.7858 18.4174 17.3151 18.42C17.6501 18.4289 17.9777 18.5206 18.2686 18.6869V18.6869C19.2194 19.2348 20.4342 18.9108 20.986 17.9623V17.9623L21.6725 16.8181C21.9382 16.362 22.0112 15.8188 21.8751 15.3088C21.7391 14.7987 21.4054 14.364 20.9479 14.1007V14.1007C20.4903 13.8375 20.1566 13.4027 20.0206 12.8927C19.8846 12.3827 19.9575 11.8394 20.2232 11.3833C20.396 11.0817 20.6462 10.8315 20.9479 10.6587V10.6587C21.8907 10.1072 22.2139 8.89952 21.6725 7.95085V7.95085V7.94132Z" stroke="#79828D" stroke-width="2" stroke-linecap="round" stroke-linejoin="round"/>
<circle cx="12.6835" cy="12.3847" r="2.746" stroke="#79828D" stroke-width="2" stroke-linecap="round" stroke-linejoin="round"/>
</svg>
